<svg width="246" height="69" viewBox="0 0 246 69" fill="none" xmlns="http://www.w3.org/2000/svg">
<path d="M0.871984 21.176L2.48798 21.304L2.39198 23.24L2.39198 23.88L7.73598 23.96L11 23.864V26.04L7.92798 25.928L2.39198 26.008V26.648L2.48798 28.616L2.31198 28.76L0.695984 28.616L0.695984 21.304L0.871984 21.176Z" fill="black"/>
<path d="M7.73598 11.1756L11 11.1116V13.2716L7.92798 13.1756L6.72798 13.1916L6.71198 15.5116L6.74398 17.6076L7.73598 17.6236L11 17.5436V19.7036L7.92798 19.5916L0.695984 19.7036L0.695984 17.5116L4.95198 17.5756L4.98398 15.3676L4.95198 13.2076L0.695984 13.2716L0.695984 11.0636L7.73598 11.1756Z" fill="black"/>
<path d="M9.20798 2.14699L9.38399 2.01899L11 2.16299V8.627L7.92798 8.51499L0.695984 8.627L0.695984 2.09899L0.871984 1.97099L2.48798 2.13099L2.40798 4.59499L2.42398 6.45099L4.90398 6.49899L4.93598 4.72299L4.88798 3.04299L5.04799 2.91499L6.66398 3.05899L6.61598 4.88299L6.63198 6.53099L7.73598 6.547L9.28798 6.49899L9.30399 4.69099L9.20798 2.14699Z" fill="black"/>
<path d="M32.488 0.0479972C35.0107 0.0479972 37.3867 0.443997 39.616 1.236L38.12 8.232L37.548 8.584C36.7853 8.17333 35.9053 7.85067 34.908 7.616C33.9107 7.352 32.9867 7.22 32.136 7.22C30.3467 7.22 29.056 7.748 28.264 8.804C27.472 9.83067 27.076 11.5613 27.076 13.996C27.076 16.8413 27.5307 18.924 28.44 20.244C29.3493 21.5347 30.772 22.18 32.708 22.18C33.5293 22.18 34.4387 22.1067 35.436 21.96C36.4627 21.784 37.3573 21.5493 38.12 21.256L38.824 21.696L38.12 28.648C36.36 29.2053 34.3213 29.484 32.004 29.484C27.2813 29.484 23.7173 28.252 21.312 25.788C18.936 23.324 17.748 19.7307 17.748 15.008C17.748 10.256 19.024 6.57467 21.576 3.964C24.1573 1.35333 27.7947 0.0479972 32.488 0.0479972Z" fill="black"/>
<path d="M68.5535 19.76L68.9055 29H60.0616L60.5015 20.64L60.4576 18.44L55.7055 18.352L51.6135 18.484L51.5695 19.76L51.9215 29H43.0776L43.5175 20.64L43.0776 0.531999H52.0535L51.7895 11.312L56.2336 11.4L60.2815 11.312L60.0616 0.531999H69.0375L68.5535 19.76Z" fill="black"/>
<path d="M86.7668 0.0039978C90.9028 0.0039978 94.1001 1.236 96.3588 3.7C98.6175 6.13467 99.7468 9.58133 99.7468 14.04C99.7468 18.968 98.5001 22.7813 96.0068 25.48C93.5428 28.1787 90.0375 29.528 85.4908 29.528C81.3548 29.528 78.1575 28.296 75.8988 25.832C73.6401 23.3387 72.5108 19.8187 72.5108 15.272C72.5108 10.4027 73.7428 6.648 76.2068 4.008C78.7001 1.33866 82.2201 0.0039978 86.7668 0.0039978ZM85.9748 7.044C84.8308 7.044 83.9655 7.24933 83.3788 7.66C82.7921 8.04133 82.3668 8.73067 82.1028 9.728C81.8681 10.7253 81.7508 12.1773 81.7508 14.084C81.7508 16.5187 81.8828 18.3667 82.1468 19.628C82.4108 20.8893 82.8508 21.7693 83.4668 22.268C84.1121 22.7667 85.0508 23.016 86.2828 23.016C87.4268 23.016 88.2921 22.8253 88.8788 22.444C89.4655 22.0333 89.8761 21.3293 90.1108 20.332C90.3748 19.3053 90.5068 17.8387 90.5068 15.932C90.5068 13.5267 90.3748 11.6933 90.1108 10.432C89.8468 9.17067 89.3921 8.29066 88.7468 7.792C88.1308 7.29333 87.2068 7.044 85.9748 7.044Z" fill="black"/>
<path d="M116.437 0.0479972C118.96 0.0479972 121.336 0.443997 123.565 1.236L122.069 8.232L121.497 8.584C120.734 8.17333 119.854 7.85067 118.857 7.616C117.86 7.352 116.936 7.22 116.085 7.22C114.296 7.22 113.005 7.748 112.213 8.804C111.421 9.83067 111.025 11.5613 111.025 13.996C111.025 16.8413 111.48 18.924 112.389 20.244C113.298 21.5347 114.721 22.18 116.657 22.18C117.478 22.18 118.388 22.1067 119.385 21.96C120.412 21.784 121.306 21.5493 122.069 21.256L122.773 21.696L122.069 28.648C120.309 29.2053 118.27 29.484 115.953 29.484C111.23 29.484 107.666 28.252 105.261 25.788C102.885 23.324 101.697 19.7307 101.697 15.008C101.697 10.256 102.973 6.57467 105.525 3.964C108.106 1.35333 111.744 0.0479972 116.437 0.0479972Z" fill="black"/>
<path d="M138.994 0.0039978C143.13 0.0039978 146.328 1.236 148.586 3.7C150.845 6.13467 151.974 9.58133 151.974 14.04C151.974 18.968 150.728 22.7813 148.234 25.48C145.77 28.1787 142.265 29.528 137.718 29.528C133.582 29.528 130.385 28.296 128.126 25.832C125.868 23.3387 124.738 19.8187 124.738 15.272C124.738 10.4027 125.97 6.648 128.434 4.008C130.928 1.33866 134.448 0.0039978 138.994 0.0039978ZM138.202 7.044C137.058 7.044 136.193 7.24933 135.606 7.66C135.02 8.04133 134.594 8.73067 134.33 9.728C134.096 10.7253 133.978 12.1773 133.978 14.084C133.978 16.5187 134.11 18.3667 134.374 19.628C134.638 20.8893 135.078 21.7693 135.694 22.268C136.34 22.7667 137.278 23.016 138.51 23.016C139.654 23.016 140.52 22.8253 141.106 22.444C141.693 22.0333 142.104 21.3293 142.338 20.332C142.602 19.3053 142.734 17.8387 142.734 15.932C142.734 13.5267 142.602 11.6933 142.338 10.432C142.074 9.17067 141.62 8.29066 140.974 7.792C140.358 7.29333 139.434 7.044 138.202 7.044Z" fill="black"/>
<path d="M172.592 22.4L172.064 29H155.124L155.564 20.64L155.124 0.531999H164.1L163.616 19.76L163.704 21.784H172.108L172.592 22.4Z" fill="black"/>
<path d="M200.616 29H191.684L190.892 24.292L190.848 24.16L186.536 24.072L182.928 24.248L182.18 29H173.556L182.18 0.531999H192.828L200.616 29ZM189.528 17.736L187.592 8.408H187.064L184.6 17.736L187.064 17.78L189.528 17.736Z" fill="black"/>
<path d="M222.089 1.148L221.605 7.572L215.797 7.308H215.269L215.049 19.76L215.401 29H206.601L207.041 20.64L206.821 7.308H206.249L200.397 7.572L199.869 6.956L200.353 0.531999H221.605L222.089 1.148Z" fill="black"/>
<path d="M245.135 21.96L245.619 22.576L245.091 29H225.027L225.467 20.64L225.027 0.531999H245.443L245.927 1.148L245.355 7.572L238.359 7.308H233.827L233.739 11.312H238.095L242.671 11.18L243.155 11.796L242.627 18.22L237.523 18.088H233.563L233.519 19.76L233.607 22.224H237.831L245.135 21.96Z" fill="black"/>
<path d="M28.44 46.308L28.308 51.412H31.3L36.404 51.28L36.888 51.896L36.36 58.32L30.684 58.188H28.132V58.76L28.484 68H19.64L20.08 59.64L19.64 39.532H38.648L39.132 40.148L38.56 46.572L31.52 46.308H28.44Z" fill="black"/>
<path d="M64.6544 68H55.7224L54.9304 63.292L54.8864 63.16L50.5744 63.072L46.9664 63.248L46.2184 68H37.5944L46.2184 39.532H56.8664L64.6544 68ZM53.5664 56.736L51.6304 47.408H51.1024L48.6384 56.736L51.1024 56.78L53.5664 56.736Z" fill="black"/>
<path d="M80.161 39.048C82.6837 39.048 85.0597 39.444 87.289 40.236L85.793 47.232L85.221 47.584C84.4583 47.1733 83.5783 46.8507 82.581 46.616C81.5837 46.352 80.6597 46.22 79.809 46.22C78.0197 46.22 76.729 46.748 75.937 47.804C75.145 48.8307 74.749 50.5613 74.749 52.996C74.749 55.8413 75.2037 57.924 76.113 59.244C77.0223 60.5347 78.445 61.18 80.381 61.18C81.2023 61.18 82.1117 61.1067 83.109 60.96C84.1357 60.784 85.0303 60.5493 85.793 60.256L86.497 60.696L85.793 67.648C84.033 68.2053 81.9943 68.484 79.677 68.484C74.9543 68.484 71.3903 67.252 68.985 64.788C66.609 62.324 65.421 58.7307 65.421 54.008C65.421 49.256 66.697 45.5747 69.249 42.964C71.8303 40.3533 75.4677 39.048 80.161 39.048Z" fill="black"/>
<path d="M110.287 40.148L109.803 46.572L103.995 46.308H103.467L103.247 58.76L103.599 68H94.7985L95.2385 59.64L95.0185 46.308H94.4465L88.5945 46.572L88.0665 45.956L88.5505 39.532H109.803L110.287 40.148Z" fill="black"/>
<path d="M125.116 39.004C129.252 39.004 132.449 40.236 134.708 42.7C136.966 45.1347 138.096 48.5813 138.096 53.04C138.096 57.968 136.849 61.7813 134.356 64.48C131.892 67.1787 128.386 68.528 123.84 68.528C119.704 68.528 116.506 67.296 114.248 64.832C111.989 62.3387 110.86 58.8187 110.86 54.272C110.86 49.4027 112.092 45.648 114.556 43.008C117.049 40.3387 120.569 39.004 125.116 39.004ZM124.324 46.044C123.18 46.044 122.314 46.2493 121.728 46.66C121.141 47.0413 120.716 47.7307 120.452 48.728C120.217 49.7253 120.1 51.1773 120.1 53.084C120.1 55.5187 120.232 57.3667 120.496 58.628C120.76 59.8893 121.2 60.7693 121.816 61.268C122.461 61.7667 123.4 62.016 124.632 62.016C125.776 62.016 126.641 61.8253 127.228 61.444C127.814 61.0333 128.225 60.3293 128.46 59.332C128.724 58.3053 128.856 56.8387 128.856 54.932C128.856 52.5267 128.724 50.6933 128.46 49.432C128.196 48.1707 127.741 47.2907 127.096 46.792C126.48 46.2933 125.556 46.044 124.324 46.044Z" fill="black"/>
<path d="M160.209 56.78C162.321 60.0653 164.433 63.116 166.545 65.932L166.413 66.9C163.421 67.8093 160.473 68.352 157.569 68.528L156.733 67.824L156.205 66.724C155.97 66.2547 155.501 65.272 154.797 63.776C154.093 62.2507 153.477 60.828 152.949 59.508H150.001L150.309 68H141.465L141.905 59.64L141.465 39.532L154.973 39.488C158.17 39.488 160.634 40.2507 162.365 41.776C164.096 43.272 164.961 45.4427 164.961 48.288C164.961 49.96 164.536 51.5293 163.685 52.996C162.864 54.4627 161.705 55.724 160.209 56.78ZM155.677 49.168C155.677 47.9947 155.369 47.1293 154.753 46.572C154.166 45.9853 153.198 45.6627 151.849 45.604L150.265 45.736L150.089 53.084L153.301 53.26C154.122 52.8787 154.724 52.3653 155.105 51.72C155.486 51.0747 155.677 50.224 155.677 49.168Z" fill="black"/>
<path d="M182.585 60.52L182.937 68H174.137L174.577 60.52L174.533 59.156L165.425 39.532H174.665L175.369 41.908L178.581 50.488H179.109L182.805 42.216L183.817 39.532H192.793L182.673 58.848L182.585 60.52Z" fill="black"/>
</svg>
